<svg xmlns="http://www.w3.org/2000/svg" viewBox="0 0 64 64" fill="none">
  <!-- Background circle -->
  <circle cx="32" cy="32" r="30" fill="#1a1025"/>
  <circle cx="32" cy="32" r="28" fill="none" stroke="#7c3aed" stroke-width="2" opacity="0.5"/>
  
  <!-- Center pillar -->
  <rect x="30.5" y="14" width="3" height="34" rx="1.5" fill="#7c3aed"/>
  
  <!-- Base -->
  <rect x="22" y="46" width="20" height="3" rx="1.5" fill="#7c3aed"/>
  <rect x="26" y="44" width="12" height="3" rx="1" fill="#7c3aed"/>
  
  <!-- Crossbeam -->
  <rect x="12" y="16" width="40" height="2.5" rx="1.25" fill="#a78bfa"/>
  
  <!-- Left scale pan -->
  <line x1="16" y1="17.25" x2="16" y2="28" stroke="#a78bfa" stroke-width="1.5" stroke-linecap="round"/>
  <!-- Left pan chains -->
  <line x1="16" y1="28" x2="10" y2="28" stroke="#a78bfa" stroke-width="1" stroke-linecap="round"/>
  <line x1="16" y1="28" x2="22" y2="28" stroke="#a78bfa" stroke-width="1" stroke-linecap="round"/>
  <!-- Left pan -->
  <path d="M8 28 Q8 34 16 34 Q24 34 24 28" fill="#7c3aed" opacity="0.7"/>
  <path d="M8 28 Q8 34 16 34 Q24 34 24 28" fill="none" stroke="#a78bfa" stroke-width="1.2"/>
  
  <!-- Right scale pan -->
  <line x1="48" y1="17.25" x2="48" y2="24" stroke="#a78bfa" stroke-width="1.5" stroke-linecap="round"/>
  <!-- Right pan chains -->
  <line x1="48" y1="24" x2="42" y2="24" stroke="#a78bfa" stroke-width="1" stroke-linecap="round"/>
  <line x1="48" y1="24" x2="54" y2="24" stroke="#a78bfa" stroke-width="1" stroke-linecap="round"/>
  <!-- Right pan -->
  <path d="M40 24 Q40 30 48 30 Q56 30 56 24" fill="#7c3aed" opacity="0.7"/>
  <path d="M40 24 Q40 30 48 30 Q56 30 56 24" fill="none" stroke="#a78bfa" stroke-width="1.2"/>
  
  <!-- Top ornament -->
  <circle cx="32" cy="14" r="3" fill="#a78bfa"/>
  <circle cx="32" cy="14" r="1.5" fill="#7c3aed"/>
</svg>
